<svg width="45" height="90" xmlns="http://www.w3.org/2000/svg">
 <defs>
  <linearGradient x1="1.00379" x2="0.02837" y1="0.59605" y2="0.59605" id="linearGradient2526">
   <stop stop-color="#3ec549" stop-opacity="0.50836" offset="0" id="stop1418"/>
   <stop stop-color="#4fe756" stop-opacity="0.11706" offset="1" id="stop1420"/>
  </linearGradient>
  <linearGradient x1="1" x2="-0.05144" y1="0.59322" y2="0.34849" id="linearGradient2524">
   <stop stop-color="#56d760" stop-opacity="0.58863" offset="0" id="stop1408"/>
   <stop stop-color="#18b01f" stop-opacity="0.39216" offset="1" id="stop1410"/>
  </linearGradient>
  <linearGradient x1="1" x2="-0.02012" y1="0.71311" y2="0.26975" id="linearGradient2522">
   <stop stop-color="#179907" offset="0" id="stop1354"/>
   <stop stop-color="#0f7402" offset="1" id="stop1356"/>
  </linearGradient>
  <linearGradient x1="0.57999" x2="0.41907" y1="0" y2="1.0164" id="linearGradient2520">
   <stop stop-color="#1b611f" offset="0" id="stop2129"/>
   <stop stop-color="#103f14" offset="1" id="stop2131"/>
  </linearGradient>
 </defs>
 <metadata>image/svg+xmlOpenclipartSet of simple arrow2008-11-18T17:14:39A set of arrow.Very basic, useful for beginners.https://openclipart.org/detail/20245/set-of-simple-arrow-by-rg1024-20245rg1024arrowarrowsdirection</metadata>
 <g>
  <title>background</title>
  <rect fill="none" id="canvas_background" height="92" width="47" y="-1" x="-1"/>
 </g>
 <g>
  <title>Layer 1</title>
  <g id="layer1">
   <g transform="matrix(13.994,0,0,13.994,1327,332.4) " id="g2720">
    <g id="g2514">
     <path fill="url(#linearGradient2520)" d="m7.04203,-20.39857l-14.063,0c-0.049,-1 0,-5 0,-5c-0.009,-0.447 -0.117,-0.83 -0.531,-1s-0.867,-0.093 -1.188,0.219l-16,16c-0.42138,0.435 -0.42138,1.127 0.00043,1.562l16,16c0.321,0.312 0.774,0.42 1.188,0.25c0.414,-0.169 0.522,-0.584 0.531,-1.031l0,-5l7.938,0c2.281,-0.156 3.281,0.844 3.281,3.844l0,6.062s0,1 1,1c6,0 12,-0.062 18,-0.062c1,0 1,-1 1,-1l0,-12.5c0,-14.5 -8,-19.5 -17.156,-19.344l-0.00043,0z" id="path1388"/>
     <path fill="url(#linearGradient2522)" d="m22.79203,-1.11757c0,-7.003 -1.917,-11.445 -4.75,-14.187c-2.834,-2.743 -6.705,-3.887 -11.032,-3.813l-0.031,0l-14.062,0c-0.719,0.001 -1.311,-0.563 -1.344,-1.281c-0.05,-1.031 -0.012,-3.439 0,-4.313l-15.25,15.25l15.25,15.282l0,-4.282c0,-0.742 0.602,-1.343 1.344,-1.343l7.843,0c0.032,-0.002 0.062,0.001 0.094,0c1.318,-0.073 2.637,0.211 3.5,1.187c0.884,1 1.125,2.351 1.125,4l0,5.719c5.762,-0.002 11.533,-0.06 17.313,-0.063l0,-12.156z" id="path2147"/>
     <path fill="url(#linearGradient2524)" d="m21.96203,-0.93557c0,-6.849 -1.857,-11.036 -4.5,-13.594c-2.642,-2.557 -6.268,-3.633 -10.438,-3.562l-0.031,0l-14.063,0c-1.161,0.001 -2.133,-0.934 -2.187,-2.094c-0.029,-0.594 -0.007,-1.421 0,-2.313l-13.219,13.219l13.219,13.25l0,-2.25c0,-1.198 0.989,-2.187 2.187,-2.187l7.782,0c0.068,-0.005 0.045,-0.001 0.062,0c0.018,0 0.096,-0.002 0.063,0c1.469,-0.082 3.064,0.233 4.156,1.468c1.083,1.226 1.344,2.831 1.344,4.563l0,4.875c5.197,-0.007 10.405,-0.056 15.625,-0.063l0,-11.312z" id="path1412"/>
     <path fill="url(#linearGradient2526)" d="m21.93603,0.80043c0.266,-6.44 -0.593,-11.681 -4.352,-15.246c-2.682,-2.544 -5.504,-3.643 -10.622,-3.572l-0.032,0l-14.062,0c-1.13,0.001 -2.073,-0.903 -2.125,-2.031c-0.031,-0.624 -0.012,-1.545 0,-2.438l-13.214,13.214l9.793,9.794c1.932,-7.883 9.08,-13.39 17.952,-13.39c7.152,0 12.298,2.105 16.662,13.669z" id="path4351"/>
    </g>
   </g>
   <path stroke="#000000" stroke-width="7.7787" fill="none" d="m-56.683,-234.012" id="path3503"/>
   <path stroke="#000000" stroke-width="7.7787" fill="none" d="m-193.833,-315.196" id="path3946"/>
   <g transform="matrix(0,-1,1,0,101.73,446.7) " id="g3970"/>
   <g transform="matrix(-1,0,0,-1,651.72,751.46) " id="g4016">
    <path stroke="#000000" stroke-linecap="round" stroke-width="7.7787" fill="none" d="m613.963,692.292c0.34,-1.19 11.57,-25.68 17.14,-25.14c5.57,0.53 12.92,25.33 12.92,25.33" id="path4018"/>
    <path stroke="#000000" stroke-linecap="round" stroke-width="7.7787" fill="none" d="m630.683,667.442s-4.62,29.34 1.35,76.44" id="path4020"/>
   </g>
  </g>
 </g>
</svg>